<svg width="174" height="40" viewBox="0 0 174 40" fill="none" xmlns="http://www.w3.org/2000/svg">
<path d="M9.9703 15.4455C9.9703 15.4455 12.1881 10.0594 14.8812 10.0594H27.9505C26.0495 4.19802 20.7426 0 14.4851 0C6.56436 0 0.227722 6.65346 0.227722 14.8911C0.227722 16.6337 0.544554 18.3762 1.09901 19.9604C2.92079 25.2673 7.51485 29.2277 13.1386 29.7822C13.6139 29.8614 14.0891 29.8614 14.4851 29.8614H34.8416C34.4455 25.5842 31.5149 22.0198 27.6337 20.5941C26.6832 20.2772 25.5743 20.0396 24.5446 19.9604H14.8812C12.5049 19.9604 9.9703 15.4455 9.9703 15.4455Z" fill="#2764ED"/>
<path d="M57.0991 24.2377C56.7823 16.5545 50.6833 10.2971 43.0001 9.82184C42.6833 9.82184 42.3665 9.82184 42.0496 9.82184L27.9506 10.0595L29.5348 15.604C30.2477 18.0595 32.4655 19.802 35.0793 19.802H42.4457C44.9011 19.802 47.2774 24.8713 47.2774 24.8713C47.2774 24.8713 45.1387 29.703 42.4457 29.703H34.8417C34.8417 29.703 34.9209 40.0001 42.2873 40.0001C50.8417 40.0001 57.416 32.7921 57.0991 24.2377Z" fill="#FA7A18"/>
<path d="M63.9108 20.0396C63.9108 13.0693 68.8217 8 75.5544 8C80.4653 8 84.1088 10.8515 85.297 14.099L81.8118 15.8416C80.8613 13.3861 78.6435 11.6436 75.5544 11.6436C70.9603 11.6436 67.8712 15.1287 67.8712 20.1188C67.8712 25.1881 71.0395 28.6733 75.5544 28.6733C78.5643 28.6733 80.8613 26.9307 81.8118 24.4753L85.297 26.1386C84.1088 29.3861 80.4653 32.2376 75.5544 32.2376C68.9009 32.1584 63.9108 27.0891 63.9108 20.0396Z" fill="#061754"/>
<path d="M88.7029 8.39606H96.3069C103.673 8.39606 108.426 13.1485 108.426 20.1188C108.426 27.0891 103.673 31.8416 96.3069 31.8416H88.7029V8.39606ZM96.3861 28.2772C101.218 28.2772 104.386 25.0297 104.386 20.0396C104.386 15.0495 101.218 11.802 96.3861 11.802H92.5841V28.198H96.3861V28.2772Z" fill="#061754"/>
<path d="M110.644 23.2871C110.644 18.2178 114.366 14.495 119.356 14.495C122.921 14.495 125.931 16.4752 126.96 19.3267L123.713 20.99C123.079 19.1683 121.416 17.9801 119.436 17.9801C116.663 17.9801 114.683 20.198 114.683 23.3663C114.683 26.4554 116.663 28.6732 119.436 28.6732C121.495 28.6732 123.079 27.4851 123.713 25.6633L126.96 27.3267C125.931 30.099 123 32.1584 119.356 32.1584C114.366 32.1584 110.644 28.3564 110.644 23.2871Z" fill="#061754"/>
<path d="M143.119 20.5148V31.8415H139.554V29.9405C138.287 31.4455 136.544 32.2376 134.564 32.2376C130.762 32.2376 128.386 30.0989 128.386 27.2475C128.386 24.7128 130.366 23.0494 133.772 22.3366L139.317 21.1484V20.594C139.317 19.0098 138.049 17.9801 136.148 17.9801C134.327 17.9801 132.901 19.0098 132.267 20.594L129.02 18.9306C129.97 16.3168 132.822 14.5742 136.148 14.5742C140.267 14.495 143.119 16.9504 143.119 20.5148ZM139.317 24.9504V23.8415L134.485 24.8712C133.059 25.1881 132.267 25.9801 132.267 27.0098C132.267 28.2772 133.297 29.0692 134.96 29.0692C137.495 29.2277 139.317 27.4059 139.317 24.9504Z" fill="#061754"/>
<path d="M155.792 14.6534V18.0594H153.733C151.436 18.0594 149.851 19.5643 149.851 22.1782V31.7624H146.049V14.8911H149.614V17.2673C150.485 15.4455 152.148 14.7327 154.208 14.7327H155.792V14.6534Z" fill="#061754"/>
<path d="M173.614 24.396H161.178C161.337 27.0891 163.317 28.8316 165.931 28.8316C167.911 28.8316 169.257 27.8811 170.049 26.4554L173.139 27.9603C172.109 30.4158 169.337 32.1584 165.851 32.1584C160.703 32.1584 157.218 28.2772 157.218 23.2871C157.218 18.2178 160.861 14.495 165.614 14.495C170.366 14.495 173.772 18.2178 173.772 22.7326C173.772 23.2871 173.693 23.9207 173.614 24.396ZM169.733 21.4653C169.574 19.1683 167.752 17.5841 165.614 17.5841C163.396 17.5841 161.653 18.9306 161.178 21.4653H169.733Z" fill="#061754"/>
</svg>
